<?xml version="1.0" encoding="UTF-8"?>
<svg id="Layer_3" data-name="Layer 3" xmlns="http://www.w3.org/2000/svg" viewBox="0 0 1024 1024">
  <defs>
    <style>
      .cls-1 {
        fill: #e48243;
      }

      .cls-2 {
        fill: #1f374e;
      }

      .cls-3 {
        fill: #ea7e3b;
      }

      .cls-4 {
        fill: #1e364d;
      }

      .cls-5 {
        fill: #1f374f;
      }

      .cls-6 {
        fill: #213548;
      }

      .cls-7 {
        fill: #253747;
      }

      .cls-8 {
        fill: #e97d39;
      }

      .cls-9 {
        fill: #eb7c34;
      }

      .cls-10 {
        fill: none;
        stroke: #fafbfb;
        stroke-miterlimit: 10;
      }

      .cls-11 {
        fill: #e97f3c;
      }

      .cls-12 {
        fill: #df7f3f;
      }

      .cls-13 {
        fill: #213649;
      }

      .cls-14 {
        fill: #20374f;
      }

      .cls-15 {
        fill: #df8044;
      }
    </style>
  </defs>
  <circle class="cls-3" cx="591.8" cy="602.26" r="9.33"/>
  <circle class="cls-11" cx="482.3" cy="602.25" r="9.28"/>
  <circle class="cls-3" cx="555.31" cy="602.29" r="9.26"/>
  <g>
    <circle class="cls-3" cx="446.03" cy="602.23" r="9.41"/>
    <circle class="cls-8" cx="518.59" cy="602.34" r="9.3"/>
    <g>
      <path class="cls-2" d="M463.39,455.67v41h-28v-129h64.5c6.7,0,21.24,7,26.51,11.49,20.56,17.54,16.89,58.97-7.68,71.34-1.92.97-13.47,5.17-14.83,5.17h-40.5ZM462.39,431.67h34.5c.44,0,5.96-2.59,6.84-3.16,8.55-5.58,9.65-20.8,4.09-28.77-1.4-2.01-7.8-7.07-9.93-7.07h-35.5v39Z"/>
      <path class="cls-5" d="M715.04,450.33c0,27.2-22.05,49.25-49.25,49.25s-49.25-22.05-49.25-49.25,22.05-49.25,49.25-49.25,49.25,22.05,49.25,49.25ZM662.15,424.94c-26.7,3.68-25.2,51.7,4.69,50.76,30.54-.96,28.29-55.31-4.69-50.76Z"/>
      <path class="cls-14" d="M579.39,496.67h-26v-93h25l.49,12.99c5.6-8.15,13.88-14.11,24.01-14.98,1.72-.15,9.49-.55,9.49,1.49v23c0,.19-1.13,1.29-1.58,1.39-.78.17-7.68-1.04-10.8-.76-5.83.53-12.88,2.64-16.45,7.54-.97,1.34-4.17,7.78-4.17,8.83v53.5Z"/>
      <path class="cls-10" d="M462.39,431.67v-39h35.5c2.13,0,8.53,5.06,9.93,7.07,5.56,7.97,4.46,23.19-4.09,28.77-.87.57-6.39,3.16-6.84,3.16h-34.5Z"/>
      <path class="cls-10" d="M662.15,424.94c32.98-4.55,35.23,49.8,4.69,50.76-29.89.94-31.39-47.08-4.69-50.76Z"/>
    </g>
    <g>
      <path class="cls-8" d="M441.29,522.77c1.25,1.07,6.64,27.89,8.11,31.9l5.01-12.47c1.21-2.39,4.31-17.87,5.11-18.39.75-.48,8.34-.46,8.98.46,3.2,4.6,6.15,21.58,8.84,27.95.43,1.03.64,2.33,2.04,2.45.71-3.97,6.76-30.98,8.14-31.87s8.55.36,10.86-.12l-15.14,49.85-9.82.1-9.54-32.97c-1.87,3.94-8.2,31.95-9.64,32.87-.55.35-9.39.36-9.76.04l-14.08-48.43c-.27-2.03.08-1.28,1.46-1.47s9.07-.21,9.43.1Z"/>
      <path class="cls-3" d="M550.39,538.17c-.02.24-2.16,1.71-.5,2.5,8.82-9.65,22.68-3.77,26.22,7.79,5.14,16.77-10.6,32.1-26.2,21.2-.07,5.42-6.37,2.24-10.51,3.01v-51c2,.14,11-.79,11,1.5,0,4.84.36,10.27,0,15ZM556.12,544.85c-9.77,2.02-9.25,20.31,2.63,19.51,11.65-.79,9.7-22.05-2.63-19.51Z"/>
      <path class="cls-8" d="M508.39,557.68c-.38,6.54,6.01,8.02,11.29,6.78,4.41-1.03,4.59-6.61,11.08-1.66,6.16,4.7-9.07,10.62-13.01,10.81-8.59.42-18-5.74-19.27-14.52-4.09-28.38,34.72-31.11,35.86-4.77.05,1.12.2,2.18-.9,2.91-3.68,2.46-24.15-.43-25.05.45ZM525.39,551.67c-1.76-9.81-15.72-10.21-17,0h17Z"/>
      <path class="cls-3" d="M696.39,557.67h-26c-.16,6.56,6.6,9.05,12,6.51,4.38-2.06,4.5-5.73,10.35-1.36,3.43,2.56-1.95,6.54-4.64,8.06-10.77,6.09-26.15.07-27.73-12.68-3.63-29.24,38.24-29.9,36.02-.53ZM687.39,551.67c-.91-9.55-16.92-10.46-17,0h17Z"/>
      <path class="cls-11" d="M592.13,535.92c3.96-.67,7.61-.39,11.27,1.25,1.48.66,6.75,4.98,6.98,6.03.41,1.83-5.51,4.18-6.49,4.12-2.42-.15-9.06-7.6-12.44-1.03-.97,5.68,19.02,2.77,20.52,14.34,1.67,12.87-21.42,17.16-29.12,7.1-1.6-2.08-2.52-3.1.14-4.95,4.94-3.43,9.9,4.44,16.43,2.49,10.74-3.21-9.87-7.79-11.97-9.14-9.84-6.32-5.91-18.42,4.69-20.21Z"/>
      <path class="cls-11" d="M648.39,526.67c.28,1.69-.4,9.62-.01,10.01.36.36,6.53-.27,8.01,0,2.72,12.83-6.62,7.63-8.01,9-.64.63.11,17.05,1.11,17.9.84.72,6.42-.38,6.9.1.36.36-.26,7.43,0,9.01-19.04,1.35-16.37-5-17.01-19.49-.12-2.62-1.92-4.75,0-7.5-1.35-.27-6.66.34-7,0-.32-.32-.32-8.69,0-9.01.39-.39,5.62.4,6.01.01s-.29-8.32-.01-10.01h10.01Z"/>
      <rect class="cls-1" x="617.39" y="536.67" width="10" height="36"/>
      <path class="cls-1" d="M628.39,521.67c.84,11.24.22,11.85-11.01,11.01v-11.01s11.01,0,11.01,0Z"/>
      <path class="cls-10" d="M556.12,544.85c12.33-2.55,14.29,18.72,2.63,19.51-11.88.81-12.41-17.49-2.63-19.51Z"/>
      <path class="cls-10" d="M525.39,551.67h-17c1.28-10.21,15.24-9.81,17,0Z"/>
      <g>
        <path class="cls-11" d="M752.04,536.04c-10.42-7.19-22.55-2.39-23.56,10.27-.95,11.8,9,21.31,20.62,15.58,2.63-1.3,4.56-5.24,4.93-5.29.49-.07,9.08,2.69,9.36,3.1,3.64,5.22-15.13,13.97-20.5,14.06-34.19.61-34.33-56.4,4.92-50.99,4.47.62,15.08,6.97,15.49,11.57.17,1.89-6.01,4.28-7.5,4.36-3.28.19-2.67-1.9-3.76-2.66Z"/>
        <path class="cls-3" d="M804.14,554.61c0,10.46-8.48,18.94-18.94,18.94s-18.94-8.48-18.94-18.94,8.48-18.94,18.94-18.94,18.94,8.48,18.94,18.94ZM791.08,562.36c10.6-9.8-6.19-26.01-13.11-13.6-5.51,9.88,4.97,21.13,13.11,13.6Z"/>
        <path class="cls-10" d="M791.08,562.36c-8.14,7.53-18.61-3.72-13.11-13.6,6.91-12.4,23.7,3.8,13.11,13.6Z"/>
      </g>
      <path class="cls-10" d="M687.39,551.67h-17c.08-10.46,16.09-9.55,17,0Z"/>
    </g>
    <g>
      <path class="cls-9" d="M271.39,550.67v67c-23.22-4.65-43.19-21.53-52.18-43.32-1.97-4.78-5.82-16.42-5.82-21.18v-61.5h84.5c9.44,0,21.97-8.45,26.04-16.96,4.47-9.35,4.25-28.94,3.45-39.52-2.01-26.73-20.95-54.77-43.98-68.02,24.95.6,51.82,12.92,70.01,29.99,49.26,46.24,39.21,130.46-29.25,149.78-17.71,5-34.8,1.21-52.76,3.74Z"/>
      <g>
        <path class="cls-6" d="M230.39,374.67c.24,2.62-.52,5.8.21,8.29.77,2.65,4.51,3.28,4.81,4.41.37,1.4.22,11.1-.22,12.59-1.33,4.52-12.01.92-15.04,7.95-3.92,9.09,4.31,9.47,5.22,14.27.53,2.79.49,15.54.02,18.48-.42,2.64-6.23,6.32-8.51,8.99-6.64,7.75-12.46,17.22-15.49,27.01h-58c.5-3.9,1.35-5.84,2-9l47.3-.2c8.46-5.82,14.4-14.23,21.5-21.5,1.77-12.86-1.69-29.35.26-41.74.27-1.7.88-2.76,1.92-4.08,1.61-2.03,12.37-7.94,8.03-10.99-.6-.84-1.45-.59-2.34-.34-1.45.41-11.34,10.75-11.65,12.37l-.23,42.77c-.36,1.22-16.09,17.18-17.74,18.26-1.45.96-1.55,1.23-3.51,1.49-12.81,1.7-29.33-1.37-42.55-.05,2.26-9.15,3.26-11.54,7-20h9c1.12-6.03-2.31-3.65-7-4,1.43-2.86,2.08-4.78,4-8,7.98,2.7,12.63-8.56,17.01-10.49,2.07-.91,4.63-.33,7.02-.98,9.51-2.6,7.34-16.26-2.03-16.53,6.23-5.94,8.75-8.12,16-13l-.2,42.3c-.25.85-6.07,6.9-6.83,7.24-2.99,1.35-9.99-5.29-15.41,1.52-5.89,7.42,2.82,18.53,11.36,13.36,4.92-2.98,2.96-7.15,5.01-9.99,1.62-2.24,9.84-6.69,10.87-10.13,1.66-13.47-1.49-29.73.15-42.84.16-1.27,1.39-4.4,2.05-5.45,2.66-4.2,16.75-9.51,22.04-11.51,1.5-.57,3.17-.21,3.96-.49Z"/>
        <path class="cls-13" d="M242.39,370.67c8.79-2.13,7.49-3.9,16.68-.17,23.98,9.73,43.26,28.49,49.32,54.16-5.65.12-11.35-.13-17,0,6.12-6.85,2.08-16.11-7.53-15.07-5.22.56-5.87,6.16-8.13,6.91-2.44.81-5.56-.57-8.32.68-1.93.87-6.27,6.59-8.02,8.48-3.7.69-12.36,3.52-16,5-.39-2.28.76-3.05,1.96-4.54,4.01-4.97,11.57-10,15.07-14.93,1.09-1.52.82-3.59,1.91-5.09.85-1.17,3.31-1.96,4.6-3.4,8.48-9.46-6.87-20.39-13.54-10.55-5.16,7.61,3.72,12.56,2.89,15.8-.76,2.97-15.38,13.96-17.79,18.37-1.34,2.45-.48,3.75-.1,6.34-2.02,1.02-6.38,4.41-9,6,.35-5.38-.9-11.3,1.03-16.47s7.18-4.96,5.78-12.8c-.21-1.2-1.73-2.79-1.69-3.24.08-.95,4.5-2.59,5.37-4.49,1.65-3.63-.44-9.56.7-13.3.84-2.73,5.89-2.75,6.63-8.46.6-4.64-2.62-5.9-4.82-9.23Z"/>
        <path class="cls-4" d="M146.39,523.67c4.42.63,11.29-.99,15.3.2,4.17,1.24,13.76,17.02,18.72,19.28,3.81,1.73,10.5-.45,14.28.5,1.11.28,1.27,3.54,3.71,3.02.78,19.4,4.67,34.36,16.17,50.33l12.83,14.66c-26.41-7.46-54.69-30.37-68.16-54.33-1.59-2.82-1.91-5.79-2.83-7.67,12.17-4.69,4.47-20.93-7-16-1.3-3.88-1.94-5.74-3-10Z"/>
        <path class="cls-7" d="M199.39,481.67c-1.86,8.73-.84,20.86-1,30-3.99-.76-6.27,5.25-7.19,5.8-1,.59-9.39-.7-10.78-1.33-3.31-1.48-6.98-9.46-9.73-10.27-6.54-1.92-19.93.99-27.29-.21-.25-2.79-.93-5.39-1-9,5.82.93,31.58-1.66,34.52.98,2.65,2.39,1.07,6.82,7.96,7.11,12.9.55,12.33-16.37,1.96-17.06-5.28-.35-6.83,4.34-9.96,4.95-9.51,1.83-24.35-1.32-34.48.02.04-4.27.69-7.41,1-11h56Z"/>
        <path class="cls-7" d="M198.39,528.67c.03,2.66-.06,5.34,0,8-3.87,2.08-11.12,3.03-15.29,1.8-4.58-1.36-13.11-16.18-17.72-18.28-4.26-1.93-14.88.34-19.98-.52-.65-3.13-1.53-5.4-2-9,5.84-.76,19-2.35,24.29-.79,2.66.78,7.31,9.72,10.72,11.28s8.21-.39,11.32.68c1.9.66,4.34,7.48,8.66,6.84Z"/>
        <path class="cls-1" d="M145.39,467.67c.33-1.59.66-2.61,1-4,13.23-1.32,29.74,1.75,42.55.05,1.96-.26,2.06-.54,3.51-1.49,1.64-1.09,17.37-17.04,17.74-18.26l.23-42.77c.31-1.62,10.19-11.96,11.65-12.37.89-.25,1.74-.5,2.34.34,4.34,3.04-6.42,8.95-8.03,10.99-1.04,1.31-1.65,2.38-1.92,4.08-1.95,12.39,1.51,28.88-.26,41.74-7.1,7.27-13.03,15.68-21.5,21.5l-47.3.2Z"/>
        <path class="cls-15" d="M242.39,370.67c2.19,3.33,5.42,4.59,4.82,9.23-.74,5.71-5.8,5.73-6.63,8.46-1.14,3.74.94,9.67-.7,13.3-.86,1.9-5.29,3.55-5.37,4.49-.04.45,1.48,2.04,1.69,3.24,1.39,7.85-3.86,7.64-5.78,12.8s-.68,11.09-1.03,16.47c-1.19.72-2.03,2.19-4,2,.47-2.94.51-15.69-.02-18.48-.91-4.8-9.14-5.19-5.22-14.27,3.03-7.03,13.72-3.43,15.04-7.95.44-1.5.59-11.2.22-12.59-.3-1.14-4.04-1.77-4.81-4.41-.73-2.49.03-5.67-.21-8.29,5.22-1.85,5.72-2.48,12-4ZM242.67,378.8c0-2.29-1.86-4.15-4.15-4.15s-4.15,1.86-4.15,4.15,1.86,4.15,4.15,4.15,4.15-1.86,4.15-4.15ZM232.32,411.67c0-2.37-1.93-4.3-4.3-4.3s-4.3,1.93-4.3,4.3,1.93,4.3,4.3,4.3,4.3-1.93,4.3-4.3Z"/>
        <path class="cls-15" d="M204.39,386.67c-.66,1.05-1.89,4.18-2.05,5.45-1.64,13.12,1.5,29.37-.15,42.84-1.02,3.44-9.25,7.89-10.87,10.13-2.04,2.84-.08,7.01-5.01,9.99-8.54,5.17-17.25-5.94-11.36-13.36,5.41-6.82,12.41-.17,15.41-1.52.76-.34,6.58-6.39,6.83-7.24l.2-42.3c1.94-1.3,3.53-4.54,7-4ZM186.34,447.38c0-2.5-2.03-4.53-4.53-4.53s-4.53,2.03-4.53,4.53,2.03,4.53,4.53,4.53,4.53-2.03,4.53-4.53Z"/>
        <path class="cls-12" d="M243.39,430.67c-1.31.53-4.18,1.59-5,2-.38-2.59-1.23-3.88.1-6.34,2.41-4.41,17.03-15.4,17.79-18.37.83-3.24-8.05-8.19-2.89-15.8,6.67-9.84,22.03,1.09,13.54,10.55-1.29,1.44-3.76,2.23-4.6,3.4-1.09,1.51-.82,3.57-1.91,5.09-3.51,4.92-11.06,9.96-15.07,14.93-1.2,1.49-2.35,2.25-1.96,4.54ZM264.7,397.1c0-2.4-1.94-4.34-4.34-4.34s-4.34,1.94-4.34,4.34,1.94,4.34,4.34,4.34,4.34-1.94,4.34-4.34Z"/>
        <path class="cls-12" d="M143.39,505.67c7.37,1.2,20.75-1.71,27.29.21,2.76.81,6.42,8.78,9.73,10.27,1.39.62,9.78,1.92,10.78,1.33.93-.55,3.21-6.56,7.19-5.8-.02,1.33.02,2.67,0,4-4.95.79-5.5,7.44,0,8,0,1.67-.02,3.33,0,5-4.32.65-6.76-6.18-8.66-6.84-3.11-1.07-7.95.85-11.32-.68s-8.06-10.49-10.72-11.28c-5.3-1.55-18.45.04-24.29.79-.21-1.58.14-3.38,0-5Z"/>
        <path class="cls-1" d="M142.39,496.67c-.02-1.33-.01-2.67,0-4,10.13-1.34,24.97,1.81,34.48-.02,3.13-.6,4.68-5.3,9.96-4.95,10.37.69,10.94,17.61-1.96,17.06-6.89-.29-5.31-4.72-7.96-7.11-2.94-2.64-28.7-.05-34.52-.98ZM190.79,496.36c0-2.61-2.11-4.72-4.72-4.72s-4.72,2.11-4.72,4.72,2.11,4.72,4.72,4.72,4.72-2.11,4.72-4.72Z"/>
        <path class="cls-15" d="M198.39,536.67c.07,3.32-.13,6.68,0,10-2.44.52-2.59-2.74-3.71-3.02-3.78-.95-10.47,1.23-14.28-.5-4.97-2.25-14.55-18.04-18.72-19.28-4.01-1.19-10.87.42-15.3-.2-.35-1.4-.68-2.45-1-4,5.1.86,15.72-1.42,19.98.52,4.61,2.09,13.14,16.92,17.72,18.28,4.18,1.24,11.43.29,15.29-1.8Z"/>
        <path class="cls-12" d="M291.39,424.67c-4.08.1-8.08.07-12,0-1.99-6.31-8.92-4.98-12,0-1.57.12-6.37.7-8,1,1.75-1.9,6.08-7.61,8.02-8.48,2.76-1.25,5.89.13,8.32-.68,2.26-.75,2.9-6.35,8.13-6.91,9.61-1.04,13.66,8.22,7.53,15.07ZM290.12,417.75c0-2.38-1.93-4.31-4.31-4.31s-4.31,1.93-4.31,4.31,1.93,4.31,4.31,4.31,4.31-1.93,4.31-4.31Z"/>
        <path class="cls-12" d="M201.39,476.67c-.52,1.67-1.94,4.73-2,5h-56c.14-1.64-.21-3.38,0-5h58Z"/>
        <path class="cls-12" d="M159.39,431.67c1.63-2.73.32-3.1,4-6,.26-.2,1.56-.12,2.51-.94,2.28-1.98,9.72-7.91,6.49-11.06,1.7-1.97,2.63-3.55,5-6-.34,3.82-.29,8.07,4.5,8.09,7.05.04,2.74-10.95-4.5-8.09,1.37-1.42,2.56-2.63,4-4,9.37.27,11.54,13.93,2.03,16.53-2.39.65-4.94.07-7.02.98-4.38,1.93-9.03,13.18-17.01,10.49Z"/>
        <path class="cls-1" d="M156.39,549.67c-.65-1.32-1.2-2.23-2-4,7.62-2.95,3.27-10.66-4-9-.39-1.05-.65-1.96-1-3,11.47-4.93,19.17,11.31,7,16Z"/>
        <path class="cls-7" d="M150.39,536.67c7.27-1.66,11.62,6.05,4,9-1.52-3.35-2.45-4.8-4-9Z"/>
        <path class="cls-7" d="M172.39,413.67c3.23,3.15-4.21,9.07-6.49,11.06-.95.83-2.25.74-2.51.94,1.08-4.33,4.55-8.29,7.37-11.66.39-.47,1.54-.22,1.63-.34Z"/>
        <path class="cls-7" d="M267.39,424.67c3.08-4.98,10.01-6.31,12,0-3.84-.06-8.24-.28-12,0Z"/>
        <path class="cls-8" d="M155.39,439.67c4.69.35,8.13-2.03,7,4h-9c.83-1.88,1.29-2.58,2-4Z"/>
        <path class="cls-7" d="M198.39,515.67c-.04,2.66,0,5.34,0,8-5.5-.56-4.95-7.21,0-8Z"/>
        <circle class="cls-6" cx="228.02" cy="411.67" r="4.3"/>
        <circle class="cls-6" cx="238.52" cy="378.8" r="4.15"/>
        <circle class="cls-7" cx="181.81" cy="447.38" r="4.53"/>
        <circle class="cls-6" cx="260.36" cy="397.1" r="4.34"/>
        <circle class="cls-6" cx="186.08" cy="496.36" r="4.72"/>
        <circle class="cls-6" cx="285.81" cy="417.75" r="4.31"/>
        <path class="cls-7" d="M177.39,407.67c7.24-2.86,11.55,8.13,4.5,8.09-4.79-.02-4.84-4.27-4.5-8.09Z"/>
      </g>
    </g>
  </g>
</svg>