<?xml version="1.0" encoding="UTF-8"?>
<svg id="Layer_1" data-name="Layer 1" xmlns="http://www.w3.org/2000/svg" viewBox="0 0 1920 1080">
  <defs>
    <style>
      .cls-1 {
        fill: #e48243;
      }

      .cls-2 {
        fill: #1e364d;
      }

      .cls-3 {
        fill: #213548;
      }

      .cls-4 {
        fill: #253747;
      }

      .cls-5 {
        fill: #e97d39;
      }

      .cls-6 {
        fill: #eb7c34;
      }

      .cls-7 {
        fill: #df7f3f;
      }

      .cls-8 {
        fill: #213649;
      }

      .cls-9 {
        fill: #df8044;
      }
    </style>
  </defs>
  <path class="cls-6" d="M941.75,773.98v272.7c-93.4-18.94-173.74-87.65-209.89-176.32-7.93-19.45-23.41-66.83-23.41-86.21v-250.32h339.9c37.96,0,88.36-34.39,104.73-69.04,17.98-38.05,17.08-117.8,13.88-160.87-8.09-108.8-84.26-222.94-176.92-276.85,100.36,2.46,208.45,52.59,281.61,122.07,198.16,188.21,157.73,531-117.67,609.62-71.22,20.33-139.99,4.93-212.23,15.21Z"/>
  <g>
    <path class="cls-3" d="M776.83,57.62c.96,10.67-2.09,23.61.83,33.76,3.1,10.77,18.12,13.33,19.35,17.96,1.51,5.68.88,45.17-.88,51.25-5.33,18.39-48.3,3.74-60.51,32.36-15.76,36.98,17.32,38.56,21,58.09,2.14,11.36,1.98,63.25.09,75.21-1.7,10.75-25.04,25.71-34.25,36.57-26.72,31.53-50.11,70.11-62.29,109.95h-233.3c2.02-15.88,5.42-23.78,8.04-36.63l190.26-.82c34.05-23.7,57.91-57.92,86.47-87.52,7.11-52.33-6.79-119.45,1.05-169.88,1.08-6.91,3.56-11.25,7.73-16.6,6.47-8.27,49.76-32.33,32.29-44.71-2.41-3.4-5.83-2.4-9.4-1.39-5.85,1.65-45.6,43.76-46.85,50.35l-.91,174.09c-1.46,4.97-64.74,69.91-71.34,74.34-5.82,3.9-6.22,5.02-14.11,6.08-51.52,6.91-117.96-5.57-171.16-.21,9.1-37.24,13.09-46.99,28.16-81.4l36.22-.02c4.52-24.53-9.3-14.83-28.18-16.26,5.76-11.64,8.37-19.47,16.09-32.56,32.1,10.98,50.81-34.84,68.44-42.68,8.34-3.71,18.62-1.33,28.23-3.99,38.23-10.57,29.51-66.19-8.17-67.29,25.07-24.17,35.2-33.06,64.36-52.91l-.82,172.15c-1.01,3.45-24.43,28.08-27.47,29.47-12.04,5.5-40.19-21.55-61.97,6.2-23.68,30.18,11.34,75.4,45.71,54.36,19.81-12.13,11.92-29.09,20.14-40.65,6.5-9.14,39.6-27.24,43.71-41.25,6.66-54.84-6-121,.62-174.38.64-5.18,5.58-17.92,8.25-22.19,10.69-17.1,67.37-38.69,88.64-46.85,6.03-2.31,12.77-.86,15.94-1.99Z"/>
    <path class="cls-8" d="M825.1,41.34c35.38-8.66,30.15-15.86,67.08-.71,96.48,39.59,174.02,115.98,198.4,220.46-22.73.48-45.66-.52-68.38.04,24.63-27.88,8.37-65.57-30.3-61.35-21,2.29-23.6,25.09-32.69,28.14-9.8,3.29-22.37-2.32-33.48,2.75-7.78,3.55-25.23,26.8-32.25,34.53-14.87,2.81-49.71,14.32-64.36,20.35-1.57-9.29,3.06-12.42,7.89-18.47,16.15-20.23,46.53-40.71,60.64-60.76,4.37-6.21,3.3-14.59,7.67-20.73,3.41-4.77,13.33-7.98,18.51-13.83,34.13-38.5-27.64-83.01-54.47-42.94-20.75,30.98,14.95,51.13,11.62,64.3-3.05,12.1-61.88,56.82-71.56,74.77-5.38,9.98-1.95,15.26-.41,25.79-8.13,4.15-25.64,17.97-36.2,24.42,1.39-21.89-3.63-45.99,4.13-67.05,7.75-21.03,28.87-20.18,23.26-52.12-.86-4.88-6.94-11.37-6.79-13.19.32-3.85,18.11-10.53,21.59-18.29,6.62-14.76-1.79-38.92,2.82-54.13,3.36-11.1,23.7-11.2,26.67-34.43,2.42-18.9-10.56-24.02-19.39-37.57Z"/>
    <path class="cls-2" d="M438.95,664.09c17.78,2.56,45.4-4.01,61.52.83,16.77,5.04,55.34,69.29,75.31,78.46,15.31,7.03,42.23-1.85,57.42,2.03,4.48,1.14,5.09,14.4,14.91,12.29,3.15,78.97,18.78,139.85,65.04,204.86l51.59,59.69c-106.23-30.37-219.97-123.61-274.18-221.12-6.38-11.47-7.67-23.58-11.39-31.21,48.94-19.1,17.96-85.18-28.16-65.12-5.24-15.8-7.82-23.38-12.07-40.7Z"/>
    <path class="cls-4" d="M652.14,493.14c-7.47,35.54-3.38,84.9-4.02,122.11-16.03-3.08-25.2,21.36-28.94,23.61-4.01,2.42-37.76-2.87-43.36-5.4-13.32-6.03-28.06-38.5-39.15-41.79-26.32-7.81-80.15,4.03-109.79-.84-.99-11.34-3.75-21.93-4.02-36.63,23.4,3.8,127.03-6.76,138.84,4.01,10.66,9.72,4.32,27.76,32.03,28.95,51.88,2.23,49.61-66.64,7.89-69.45-21.23-1.43-27.48,17.67-40.06,20.13-38.26,7.46-97.95-5.36-138.7.08.14-17.38,2.79-30.17,4.02-44.77h225.26Z"/>
    <path class="cls-4" d="M648.11,684.44c.13,10.83-.22,21.73,0,32.56-15.55,8.48-44.73,12.35-61.52,7.31-18.42-5.53-52.75-65.87-71.29-74.39-17.13-7.87-59.85,1.39-80.38-2.11-2.63-12.73-6.14-21.97-8.04-36.63,23.51-3.08,76.41-9.55,97.72-3.23,10.72,3.18,29.4,39.56,43.14,45.89,13.54,6.24,33.03-1.58,45.53,2.77,7.66,2.67,17.45,30.45,34.85,27.83Z"/>
    <path class="cls-1" d="M434.92,436.15c1.32-6.46,2.64-10.63,4.02-16.28,53.21-5.36,119.64,7.12,171.16.21,7.89-1.06,8.29-2.18,14.11-6.08,6.6-4.42,69.88-69.37,71.34-74.34l.91-174.09c1.25-6.59,41-48.69,46.85-50.35,3.58-1.01,6.99-2.02,9.4,1.39,17.47,12.38-25.82,36.44-32.29,44.71-4.18,5.34-6.66,9.68-7.73,16.6-7.85,50.43,6.05,117.56-1.05,169.88-28.56,29.61-52.42,63.83-86.47,87.52l-190.26.82Z"/>
    <path class="cls-9" d="M825.1,41.34c8.83,13.55,21.81,18.66,19.39,37.57-2.97,23.23-23.31,23.33-26.67,34.43-4.6,15.22,3.8,39.38-2.82,54.13-3.48,7.75-21.27,14.43-21.59,18.29-.15,1.82,5.94,8.31,6.79,13.19,5.6,31.93-15.51,31.09-23.26,52.12-7.76,21.06-2.74,45.16-4.13,67.05-4.79,2.93-8.17,8.9-16.09,8.14,1.89-11.96,2.05-63.85-.09-75.21-3.68-19.53-36.77-21.11-21-58.09,12.2-28.63,55.17-13.97,60.51-32.36,1.76-6.09,2.39-45.57.88-51.25-1.23-4.63-16.25-7.19-19.35-17.96-2.92-10.15.12-23.09-.83-33.76,21-7.53,22.99-10.09,48.27-16.28ZM826.22,74.42c0-9.33-7.47-16.89-16.69-16.89s-16.69,7.56-16.69,16.89,7.47,16.89,16.69,16.89,16.69-7.56,16.69-16.89ZM784.59,208.21c0-9.67-7.74-17.5-17.3-17.5s-17.3,7.84-17.3,17.5,7.74,17.5,17.3,17.5,17.3-7.84,17.3-17.5Z"/>
    <path class="cls-9" d="M672.25,106.47c-2.67,4.27-7.61,17.01-8.25,22.19-6.62,53.38,6.04,119.54-.62,174.38-4.11,14.01-37.21,32.11-43.71,41.25-8.22,11.56-.33,28.52-20.14,40.65-34.36,21.04-69.38-24.18-45.71-54.36,21.77-27.75,49.92-.71,61.97-6.2,3.05-1.39,26.46-26.02,27.47-29.47l.82-172.15c7.8-5.31,14.21-18.46,28.16-16.28ZM599.65,353.56c0-10.18-8.15-18.42-18.21-18.42s-18.21,8.25-18.21,18.42,8.15,18.42,18.21,18.42,18.21-8.25,18.21-18.42Z"/>
    <path class="cls-7" d="M829.12,285.56c-5.26,2.16-16.82,6.46-20.11,8.14-1.54-10.52-4.97-15.81.41-25.79,9.68-17.95,68.51-62.67,71.56-74.77,3.32-13.17-32.37-33.32-11.62-64.3,26.84-40.07,88.6,4.44,54.47,42.94-5.19,5.85-15.11,9.06-18.51,13.83-4.38,6.13-3.31,14.52-7.67,20.73-14.1,20.05-44.49,40.52-60.64,60.76-4.83,6.05-9.45,9.17-7.89,18.47ZM914.84,148.92c0-9.75-7.81-17.66-17.45-17.66s-17.45,7.91-17.45,17.66,7.81,17.66,17.45,17.66,17.45-7.91,17.45-17.66Z"/>
    <path class="cls-7" d="M426.88,590.82c29.64,4.87,83.47-6.97,109.79.84,11.09,3.29,25.83,35.75,39.15,41.79,5.6,2.54,39.34,7.82,43.36,5.4,3.74-2.25,12.91-26.69,28.94-23.61-.09,5.42.07,10.86,0,16.28-19.9,3.23-22.12,30.3,0,32.56,0,6.78-.08,13.57,0,20.35-17.39,2.63-27.19-25.16-34.85-27.83-12.5-4.35-31.98,3.47-45.53-2.77-13.74-6.33-32.42-42.71-43.14-45.89-21.31-6.32-74.21.15-97.72,3.23-.84-6.44.57-13.75,0-20.35Z"/>
    <path class="cls-1" d="M422.86,554.19c-.1-5.42-.05-10.86,0-16.28,40.75-5.44,100.44,7.38,138.7-.08,12.58-2.45,18.83-21.55,40.06-20.13,41.73,2.81,43.99,71.68-7.89,69.45-27.72-1.19-21.37-19.23-32.03-28.95-11.81-10.76-115.43-.21-138.84-4.01ZM617.56,552.92c0-10.6-8.49-19.2-18.97-19.2s-18.97,8.6-18.97,19.2,8.49,19.2,18.97,19.2,18.97-8.6,18.97-19.2Z"/>
    <path class="cls-9" d="M648.11,717c.28,13.51-.54,27.21,0,40.7-9.81,2.11-10.42-11.15-14.91-12.29-15.19-3.87-42.11,5.01-57.42-2.03-19.98-9.18-58.54-73.42-75.31-78.46-16.12-4.85-43.74,1.73-61.52-.83-1.39-5.68-2.72-9.97-4.02-16.28,20.52,3.5,63.24-5.76,80.38,2.11,18.54,8.52,52.87,68.86,71.29,74.39,16.8,5.04,45.97,1.17,61.52-7.31Z"/>
    <path class="cls-7" d="M1022.2,261.14c-16.43.4-32.49.27-48.27,0-8.02-25.69-35.89-20.26-48.27,0-6.31.48-25.62,2.83-32.18,4.07,7.02-7.72,24.47-30.98,32.25-34.53,11.11-5.07,23.68.54,33.48-2.75,9.08-3.05,11.69-25.85,32.69-28.14,38.67-4.22,54.93,33.47,30.3,61.35ZM1017.11,232.94c0-9.69-7.76-17.54-17.34-17.54s-17.34,7.85-17.34,17.54,7.76,17.54,17.34,17.54,17.34-7.85,17.34-17.54Z"/>
    <path class="cls-7" d="M660.18,472.79c-2.08,6.8-7.81,19.24-8.04,20.35h-225.26c.56-6.66-.84-13.77,0-20.35h233.3Z"/>
    <path class="cls-7" d="M491.24,289.63c6.56-11.12,1.29-12.6,16.09-24.42,1.03-.83,6.26-.48,10.08-3.84,9.16-8.07,39.12-32.19,26.12-45,6.84-8.01,10.59-14.44,20.11-24.42-1.35,15.55-1.15,32.84,18.1,32.94,28.36.15,11.04-44.57-18.1-32.94,5.52-5.79,10.31-10.71,16.09-16.28,37.69,1.1,46.41,56.72,8.17,67.29-9.62,2.66-19.89.28-28.23,3.99-17.62,7.84-36.34,53.66-68.44,42.68Z"/>
    <path class="cls-1" d="M479.17,769.91c-2.63-5.39-4.81-9.06-8.04-16.28,30.67-11.99,13.16-43.37-16.09-36.63-1.56-4.28-2.62-7.98-4.02-12.21,46.12-20.05,77.1,46.02,28.16,65.12Z"/>
    <path class="cls-4" d="M455.04,717c29.25-6.74,46.76,24.64,16.09,36.63-6.1-13.62-9.84-19.53-16.09-36.63Z"/>
    <path class="cls-4" d="M543.53,216.36c13,12.81-16.95,36.93-26.12,45-3.82,3.37-9.05,3.02-10.08,3.84,4.35-17.61,18.3-33.76,29.63-47.48,1.57-1.9,6.18-.9,6.58-1.37Z"/>
    <path class="cls-4" d="M925.66,261.14c12.38-20.26,40.25-25.69,48.27,0-15.45-.26-33.13-1.15-48.27,0Z"/>
    <path class="cls-5" d="M475.15,322.19c18.87,1.44,32.7-8.27,28.18,16.26l-36.22.02c3.35-7.65,5.19-10.5,8.04-16.28Z"/>
    <path class="cls-4" d="M648.11,631.52c-.15,10.83-.02,21.73,0,32.56-22.12-2.26-19.9-29.33,0-32.56Z"/>
    <ellipse class="cls-3" cx="767.29" cy="208.21" rx="17.3" ry="17.5"/>
    <ellipse class="cls-3" cx="809.53" cy="74.42" rx="16.69" ry="16.89"/>
    <ellipse class="cls-4" cx="581.44" cy="353.56" rx="18.21" ry="18.42"/>
    <ellipse class="cls-3" cx="897.39" cy="148.92" rx="17.45" ry="17.66"/>
    <ellipse class="cls-3" cx="598.59" cy="552.92" rx="18.97" ry="19.2"/>
    <ellipse class="cls-3" cx="999.77" cy="232.94" rx="17.34" ry="17.54"/>
    <path class="cls-4" d="M563.64,191.94c29.14-11.64,46.45,33.09,18.1,32.94-19.25-.1-19.45-17.38-18.1-32.94Z"/>
  </g>
</svg>